<svg width="100%" height="100%" viewBox="0 0 100 100" fill="none" xmlns="http://www.w3.org/2000/svg"><path d="M87.375 50.5c0 3.147-3.866 5.74-4.64 8.641-.8 3 1.223 7.178-.295 9.803-1.543 2.667-6.183 2.986-8.346 5.15-2.163 2.163-2.483 6.803-5.15 8.346-2.625 1.518-6.804-.504-9.803.295-2.9.774-5.494 4.64-8.641 4.64-3.147 0-5.74-3.866-8.641-4.64-3-.8-7.178 1.223-9.803-.295-2.667-1.543-2.986-6.183-5.15-8.346-2.163-2.163-6.803-2.483-8.346-5.15-1.518-2.625.504-6.804-.295-9.803-.774-2.9-4.64-5.494-4.64-8.641 0-3.147 3.866-5.74 4.64-8.641.8-3-1.223-7.178.295-9.803 1.543-2.667 6.183-2.986 8.346-5.15 2.164-2.163 2.483-6.803 5.15-8.346 2.625-1.518 6.804.504 9.803-.295 2.9-.774 5.494-4.64 8.641-4.64 3.147 0 5.74 3.866 8.641 4.64 3 .8 7.178-1.223 9.803.295 2.667 1.543 2.986 6.183 5.15 8.346 2.163 2.164 6.803 2.483 8.346 5.15 1.518 2.625-.504 6.804.295 9.803.774 2.9 4.64 5.494 4.64 8.641z" fill="#007AFF"></path><path d="M61.158 39.512L47.12 53.549l-7.276-7.27A4.047 4.047 0 0034.122 52L44.33 62.208a3.94 3.94 0 005.569 0l16.974-16.974a4.047 4.047 0 000-5.722 4.04 4.04 0 00-5.715 0z" fill="#ffffff"></path></svg>