<svg xmlns="http://www.w3.org/2000/svg" width="100%" height="100%" viewBox="0 0 16.273 10.95"><defs><linearGradient id="a" x1="0.5" x2="0.5" y2="1" gradientUnits="objectBoundingBox"><stop offset="0" stop-color="#dcbf8b"></stop><stop offset="1" stop-color="#b3935f"></stop></linearGradient></defs><path d="M15.633 47.193a.455.455 0 01-.012.136l-1 4.015a.456.456 0 01-.44.346l-6.023.03H2.129a.456.456 0 01-.443-.346l-1-4.03a.456.456 0 01-.015-.144.959.959 0 11.9-.174L2.823 48.3a1.706 1.706 0 002.571-.174l2.065-2.737a.959.959 0 111.369-.016l2.05 2.744a1.711 1.711 0 001.365.684 1.692 1.692 0 001.2-.5l1.265-1.265a.958.958 0 11.918.157zm-1.114 5.956a.456.456 0 00-.456-.456H2.261a.456.456 0 00-.456.456v1.1a.456.456 0 00.456.456h11.8a.456.456 0 00.456-.456z" transform="translate(0 -43.75)" fill="url(#a)"></path></svg>