<svg width="100%" height="100%" viewBox="0 0 100 100" fill="none" xmlns="http://www.w3.org/2000/svg"><path d="M56.054 25.104c2.742.574 4.524 3.37 3.976 6.242l-.242 1.26a27.11 27.11 0 01-3.038 8.308h15.188c2.794 0 5.062 2.375 5.062 5.303 0 2.044-1.107 3.822-2.732 4.706a5.4 5.4 0 011.888 4.132c0 2.586-1.772 4.74-4.103 5.204.465.806.728 1.746.728 2.751 0 2.353-1.466 4.353-3.49 5.038.073.364.115.751.115 1.149 0 2.928-2.267 5.303-5.062 5.303H54.06a9.82 9.82 0 01-5.622-1.779l-4.06-2.84c-2.816-1.966-4.504-5.28-4.504-8.827V48.77c0-3.226 1.403-6.264 3.797-8.286l.78-.652c2.795-2.342 4.704-5.635 5.4-9.303l.243-1.259c.548-2.872 3.217-4.74 5.959-4.165zM26.375 42.68h6.75c1.867 0 3.375 1.58 3.375 3.536v24.748c0 1.955-1.508 3.535-3.375 3.535h-6.75C24.508 74.5 23 72.92 23 70.965V46.217c0-1.956 1.508-3.536 3.375-3.536z" fill="#fff"></path></svg>