<svg xmlns="http://www.w3.org/2000/svg" width="30.465" height="30.465" viewBox="0 0 30.465 30.465"><defs><linearGradient id="a" x1="-0.156" y1="-0.158" x2="0.826" y2="0.872" gradientUnits="objectBoundingBox"><stop offset="0" stop-color="#e6191f"></stop><stop offset="1" stop-color="#fa473a"></stop></linearGradient></defs><path d="M23.167 26.921a1.19 1.19 0 01-.459 1.619c-.375.209-.762.4-1.153.581a1.19 1.19 0 11-.98-2.169c.329-.149.656-.314.972-.49a1.19 1.19 0 011.62.459zm4.109-4.27a1.19 1.19 0 00-1.665.244c-.216.29-.447.574-.686.846a1.19 1.19 0 101.783 1.576c.284-.321.557-.658.813-1a1.19 1.19 0 00-.245-1.666zm1.99-5.581a1.19 1.19 0 00-1.416.91c-.077.353-.17.707-.276 1.052a1.19 1.19 0 102.274.7c.127-.409.237-.829.328-1.248a1.19 1.19 0 00-.91-1.414zM14.042 5.712v9.028L9.679 19.1a1.19 1.19 0 001.683 1.683l4.712-4.712a1.19 1.19 0 00.349-.841V5.712a1.19 1.19 0 10-2.38 0zm15.233-3.153a1.19 1.19 0 00-1.19 1.19v3.3a15.234 15.234 0 10-12.853 23.416h.06c.429 0 .862-.018 1.287-.054a1.19 1.19 0 10-.2-2.372c-.36.03-.726.045-1.089.045h-.06A12.852 12.852 0 1126.3 8.687h-3.276a1.19 1.19 0 100 2.38h3.633a3.785 3.785 0 001.98-.557 1.188 1.188 0 00.107-.069 3.807 3.807 0 001.721-3.183V3.749a1.19 1.19 0 00-1.19-1.19z" fill="#e6191f"></path></svg>